<svg width="509" height="405" viewBox="0 0 509 405" fill="none" xmlns="http://www.w3.org/2000/svg">
<g clip-path="url(#clip0)">
<path opacity="0.1" d="M298.511 68.443C266.304 67.3224 235.625 56.918 206.334 45.5324C177.043 34.1468 148.031 21.531 116.596 15.4996C96.3768 11.6197 73.2517 11.0718 56.9642 21.9195C41.2837 32.3787 36.2178 50.3835 33.4957 67.1082C31.4455 79.6892 30.2412 92.9275 35.8595 104.707C39.756 112.885 46.6781 119.758 51.4603 127.617C68.1161 154.871 56.3471 188.48 38.2979 215.091C29.8381 227.577 20.0098 239.496 13.4809 252.774C6.95193 266.052 3.92631 281.288 9.63915 294.845C15.3072 308.292 28.808 318.373 43.4285 325.47C73.1323 339.889 108.121 344.013 142.264 346.349C217.819 351.524 293.773 349.282 369.528 347.041C397.565 346.209 425.721 345.368 453.3 341.03C468.617 338.619 484.427 334.799 495.549 325.565C509.662 313.846 513.16 293.998 503.705 279.305C487.836 254.657 443.989 248.535 432.882 222.079C426.781 207.52 433.051 191.304 441.919 177.796C460.948 148.829 492.842 123.414 494.524 90.3027C495.678 67.5565 480.341 44.7853 456.634 34.0223C431.787 22.7015 397.321 24.1359 378.998 42.808C360.118 62.048 326.946 69.4292 298.511 68.443Z" fill="#2B6CB0"/>
<path d="M216.695 343.908L46.3646 343.077L29.4401 303.347L89.2855 298.998L78.8551 255.438L197.222 240.083L83.8762 200.647L93.8886 198.266L276.147 228.025L266.11 296.005L251.763 333.364L216.695 343.908Z" fill="#2B6CB0"/>
<path d="M48.9772 326.437C48.9772 326.437 59.4275 324.763 65.6977 332.154C65.6977 332.154 61.0995 335.78 51.2066 330.76L48.9772 326.437Z" fill="#2B6CB0"/>
<path d="M47.8823 326.272C47.8823 326.272 41.214 334.485 44.4984 343.629C44.4984 343.629 49.9325 341.453 50.5247 330.366L47.8823 326.272Z" fill="#2B6CB0"/>
<path d="M41.8909 312.77C41.8909 312.77 46.071 305.095 62.7915 315.838C62.7915 315.838 60.5621 320.998 53.1772 320.579C45.7923 320.161 43.8416 316.814 41.8909 312.77Z" fill="#2B6CB0"/>
<path d="M40.8109 312.217C40.8109 312.217 32.1371 311.221 31.2961 331.093C31.2961 331.093 36.795 332.234 40.7014 325.948C44.6078 319.663 43.0055 316.137 40.8109 312.217Z" fill="#2B6CB0"/>
<path d="M35.76 296.364C35.76 296.364 40.6368 282.837 58.3327 292.459C58.3327 292.459 54.2919 304.871 37.5714 300.966L35.76 296.364Z" fill="#2B6CB0"/>
<path d="M30.3258 276.143C30.3258 276.143 39.5221 262.476 55.8246 275.147C55.8246 275.147 50.1117 287.977 31.7192 281.004L30.3258 276.143Z" fill="#2B6CB0"/>
<path d="M28.3751 256.898C28.3751 256.898 39.1041 244.342 55.2474 256.898C55.2474 256.898 45.0757 267.915 28.3751 260.105V256.898Z" fill="#2B6CB0"/>
<path d="M26.703 238.206C26.703 238.206 37.5713 225.097 53.0378 237.508C53.0378 237.508 40.7761 249.083 26.703 241.274V238.206Z" fill="#2B6CB0"/>
<path d="M27.6783 221.61C27.6783 221.61 39.1239 204.736 53.5951 216.172C53.5951 216.172 41.3334 230.675 27.6783 224.818V221.61Z" fill="#2B6CB0"/>
<path d="M30.3258 202.226C30.3258 202.226 42.4482 185.491 56.5213 198.321C56.5213 198.321 42.1695 212.825 30.3258 205.294V202.226Z" fill="#2B6CB0"/>
<path d="M34.3666 184.899C34.3666 184.899 48.7184 169.17 61.2389 175.436C61.2389 175.436 46.285 192.14 33.7396 189.072L34.3666 184.899Z" fill="#2B6CB0"/>
<path d="M39.3828 168.473C39.3828 168.473 55.9441 149.208 65.5782 155.643C65.5782 155.643 53.3763 170.585 38.2084 172.079L39.3828 168.473Z" fill="#2B6CB0"/>
<path d="M46.6234 149.422C46.6234 149.422 61.1194 133.693 71.7091 137.598C71.7091 137.598 59.3081 153.915 44.6776 154.333L46.6234 149.422Z" fill="#2B6CB0"/>
<path d="M53.1772 131.602C53.1772 131.602 69.201 116.54 76.1678 119.19C76.1678 119.19 64.6028 135.925 52.4805 134.949L53.1772 131.602Z" fill="#2B6CB0"/>
<path d="M59.5867 115.146C59.5867 115.146 73.3811 97.151 80.9103 98.5456C80.9103 98.5456 72.5451 114.588 59.5867 116.974V115.146Z" fill="#2B6CB0"/>
<path d="M66.5436 92.9574C66.5436 92.9574 78.7357 79.1662 85.3243 79.1961C85.3243 79.1961 75.7001 97.6242 66.041 97.4548L66.5436 92.9574Z" fill="#2B6CB0"/>
<path d="M70.664 78.1849L82.443 49.457C82.443 49.457 83.0302 75.4257 69.1661 83.5142L70.664 78.1849Z" fill="#2B6CB0"/>
<path d="M75.4463 46.5036C75.4463 46.5036 77.397 22.5122 76.143 20.5598C76.143 20.5598 84.563 40.507 75.3667 57.1023L75.4463 46.5036Z" fill="#2B6CB0"/>
<path d="M35.3022 296.045C35.3022 296.045 23.0903 288.47 15.1829 307.002C15.1829 307.002 26.0512 314.224 36.7404 300.772L35.3022 296.045Z" fill="#2B6CB0"/>
<path d="M29.9327 275.371C29.9327 275.371 14.9539 268.532 7.68848 287.882C7.68848 287.882 19.2585 295.851 31.2962 280.262L29.9327 275.371Z" fill="#2B6CB0"/>
<path d="M27.6784 258.048C27.6784 258.048 16.9494 245.492 0.806152 258.048C0.806152 258.048 10.9778 269.065 27.6784 261.256V258.048Z" fill="#2B6CB0"/>
<path d="M26.3348 238.206C26.3348 238.206 15.4665 225.097 0 237.508C0 237.508 12.2617 249.083 26.3348 241.274V238.206Z" fill="#2B6CB0"/>
<path d="M27.6784 222.089C27.6784 222.089 20.0546 203.187 3.4834 211.316C3.4834 211.316 12.4408 228.075 27.0016 225.226L27.6784 222.089Z" fill="#2B6CB0"/>
<path d="M31.2863 202.131C31.2863 202.131 23.7073 182.901 6.90222 191.817C6.90222 191.817 17.1933 209.443 30.5398 205.1L31.2863 202.131Z" fill="#2B6CB0"/>
<path d="M35.9839 184.993C35.9839 184.993 32.9981 163.911 19.0643 162.023C19.0643 162.023 22.0203 184.256 34.1078 188.794L35.9839 184.993Z" fill="#2B6CB0"/>
<path d="M39.7361 168.513C39.7361 168.513 38.5716 143.112 27.0514 142.225C27.0514 142.225 27.4395 161.505 38.4373 172.109L39.7361 168.513Z" fill="#2B6CB0"/>
<path d="M47.8176 148.71C47.8176 148.71 44.3839 127.587 33.3862 125.007C33.3862 125.007 34.7497 145.463 46.7278 153.895L47.8176 148.71Z" fill="#2B6CB0"/>
<path d="M54.4809 131.776C54.4809 131.776 54.3665 109.772 47.6484 106.539C47.6484 106.539 43.4832 126.462 52.5352 134.585L54.4809 131.776Z" fill="#2B6CB0"/>
<path d="M60.0993 114.897C60.0993 114.897 59.1587 92.2402 52.2018 89.0476C52.2018 89.0476 49.8231 106.978 59.0592 116.381L60.0993 114.897Z" fill="#2B6CB0"/>
<path d="M67.514 94.7653C67.514 94.7653 67.4742 76.3372 62.5078 72.014C62.5078 72.014 57.5713 92.2003 64.9213 98.4708L67.514 94.7653Z" fill="#2B6CB0"/>
<path d="M70.0817 77.2785L65.2497 46.6082C65.2497 46.6082 58.6859 71.7401 70.3106 82.8169L70.0817 77.2785Z" fill="#2B6CB0"/>
<path d="M71.0223 46.7925C71.0223 46.7925 58.6213 26.1729 58.8751 23.8818C58.8751 23.8818 60.1938 45.4925 75.7946 56.2555L71.0223 46.7925Z" fill="#2B6CB0"/>
<path d="M72.4754 40.7012C72.4754 40.7012 60.771 11.4154 55.4762 9.04468C55.4762 9.04468 72.1967 17.5515 73.4507 39.8644L72.4754 40.7012Z" fill="#2B6CB0"/>
<path d="M65.9812 97.6291L65.1801 97.385C75.0581 65.1458 77.5214 44.591 72.122 39.4361L72.6943 38.8285C78.4221 44.2673 76.0981 64.598 65.9812 97.6291Z" fill="#444053"/>
<path d="M38.7806 173.115L37.5962 172.691C38.6462 169.738 39.7758 166.74 40.9602 163.786C51.2712 138.066 60.0494 114.14 65.6777 95.7714L66.7078 95.2733C61.0696 113.677 52.4456 138.52 42.1247 164.274C40.9453 167.173 39.8206 170.156 38.7806 173.115Z" fill="#444053"/>
<path d="M63.7021 350.562C63.5428 350.388 47.534 332.343 36.372 301.539C29.8318 283.504 26.192 264.544 25.5883 245.368C24.8219 221.396 29.848 194.631 38.4571 170.316L39.3927 171.411C20.0646 225.983 27.743 272.746 37.9296 300.906C48.9721 331.432 64.8019 349.277 64.9561 349.457L63.7021 350.562Z" fill="#444053"/>
<path d="M313.873 312.252C313.873 312.252 302.591 326.033 311.549 346.867L221.477 385.964L212.833 387.777L208.852 370.345L211.514 348.346V336.323L313.873 312.252Z" fill="#D5D6DB"/>
<path d="M29.4401 303.347L154.107 280.6L319.297 306.938L216.695 343.908L29.4401 303.347Z" fill="#2B6CB0"/>
<path d="M29.4401 303.347L154.107 280.6L319.297 306.938L216.695 343.908L29.4401 303.347Z" fill="#2B6CB0"/>
<path d="M29.44 303.342C29.44 303.342 17.7805 325.45 31.2166 345.871L216.088 385.964C216.088 385.964 204.612 368.353 216.68 343.908L29.44 303.342Z" fill="#2B6CB0"/>
<path opacity="0.1" d="M29.44 303.342C29.44 303.342 17.7805 325.45 31.2166 345.871L216.088 385.964C216.088 385.964 204.612 368.353 216.68 343.908L29.44 303.342Z" fill="black"/>
<path opacity="0.1" d="M34.9488 311.007C34.9488 311.007 28.2855 327.184 34.9488 337.653V311.007Z" fill="black"/>
<path d="M216.088 385.964L319.297 341.886C319.297 341.886 325.069 343.131 321.337 347.365C317.605 351.598 218.078 390.198 218.078 390.198L31.2166 345.871L216.088 385.964Z" fill="#2B6CB0"/>
<path opacity="0.1" d="M216.088 385.964L319.297 341.886C319.297 341.886 325.069 343.131 321.337 347.365C317.605 351.598 218.078 390.198 218.078 390.198L31.2166 345.871L216.088 385.964Z" fill="black"/>
<path opacity="0.1" d="M207.628 348.361C207.628 348.361 197.675 360.314 207.628 378.244V348.361Z" fill="black"/>
<path opacity="0.1" d="M255.812 348.159L211.17 363.065L211.328 363.538L255.97 348.631L255.812 348.159Z" fill="black"/>
<path opacity="0.1" d="M264.754 346.675L211.156 367.074L211.333 367.54L264.931 347.141L264.754 346.675Z" fill="black"/>
<path opacity="0.1" d="M272.966 346.604L211.455 371.803L211.644 372.264L273.154 347.065L272.966 346.604Z" fill="black"/>
<path opacity="0.1" d="M281.896 344.446L212.173 375.969L212.378 376.422L282.101 344.9L281.896 344.446Z" fill="black"/>
<path opacity="0.1" d="M289.398 344.456L212.725 377.998L212.924 378.455L289.597 344.913L289.398 344.456Z" fill="black"/>
<path opacity="0.1" d="M305.807 341.667L213.881 381.405L214.078 381.862L306.005 342.125L305.807 341.667Z" fill="black"/>
<path opacity="0.3" d="M75.7548 305.777L163.338 287.349L216.695 297.559L144.926 320.719L75.7548 305.777Z" fill="white"/>
<path d="M319.297 306.938C319.297 306.938 323.825 308.765 321.168 311.589C318.511 314.413 216.68 343.908 216.68 343.908L319.297 306.938Z" fill="#2B6CB0"/>
<path d="M363.283 264.349C363.283 264.349 352.006 278.125 360.964 298.964L270.892 338.061L262.248 339.884L258.267 322.452L260.969 300.458V288.42L363.283 264.349Z" fill="#D5D6DB"/>
<path d="M78.8551 255.438L203.517 232.697L368.712 259.034L266.11 296.005L78.8551 255.438Z" fill="#3A3768"/>
<path d="M78.8352 255.438C78.8352 255.438 67.1707 277.547 80.6068 297.968L265.478 338.061C265.478 338.061 254.007 320.435 266.09 296L78.8352 255.438Z" fill="#3A3768"/>
<path opacity="0.1" d="M78.8352 255.438C78.8352 255.438 67.1707 277.547 80.6068 297.968L265.478 338.061C265.478 338.061 254.007 320.435 266.09 296L207.628 283.335L78.8352 255.438Z" fill="black"/>
<path opacity="0.1" d="M84.3589 263.104C84.3589 263.104 77.7006 279.275 84.3589 289.75V263.104Z" fill="black"/>
<path d="M265.498 338.061L368.712 293.983C368.712 293.983 374.48 295.228 370.747 299.462C367.015 303.695 267.488 342.295 267.488 342.295L80.6267 297.968L265.498 338.061Z" fill="#3A3768"/>
<path opacity="0.1" d="M265.498 338.061L368.712 293.983C368.712 293.983 374.48 295.228 370.747 299.462C367.015 303.695 267.488 342.295 267.488 342.295L80.6267 297.968L265.498 338.061Z" fill="black"/>
<path opacity="0.1" d="M257.038 300.458C257.038 300.458 247.085 312.411 257.038 330.341V300.458Z" fill="black"/>
<path opacity="0.1" d="M305.226 300.261L260.584 315.167L260.741 315.64L305.384 300.733L305.226 300.261Z" fill="black"/>
<path opacity="0.1" d="M314.174 298.775L260.576 319.174L260.753 319.639L314.351 299.241L314.174 298.775Z" fill="black"/>
<path opacity="0.1" d="M322.379 298.697L260.868 323.896L261.056 324.357L322.567 299.158L322.379 298.697Z" fill="black"/>
<path opacity="0.1" d="M331.314 296.54L261.592 328.062L261.797 328.516L331.519 296.994L331.314 296.54Z" fill="black"/>
<path opacity="0.1" d="M338.809 296.544L262.136 330.086L262.336 330.542L339.009 297L338.809 296.544Z" fill="black"/>
<path opacity="0.1" d="M355.223 293.755L263.297 333.492L263.494 333.95L355.42 294.212L355.223 293.755Z" fill="black"/>
<path opacity="0.45" d="M125.17 257.874L212.753 239.446L266.11 249.656L194.341 272.816L125.17 257.874Z" fill="white"/>
<path d="M368.712 259.034C368.712 259.034 373.236 260.862 370.583 263.681C367.931 266.5 266.11 296 266.11 296L368.712 259.034Z" fill="#3A3768"/>
<path d="M367.961 209.548C367.961 209.548 356.679 234.286 365.637 255.12L275.565 283.26L266.941 285.088L262.96 267.656L265.622 245.657V233.619L367.961 209.548Z" fill="#D5D6DB"/>
<path d="M83.5477 200.642L208.215 177.896L373.41 204.233L270.802 241.204L83.5477 200.642Z" fill="#2B6CB0"/>
<path d="M83.5478 200.637C83.5478 200.637 71.8683 222.746 85.3044 243.166L270.175 283.26C270.175 283.26 258.7 265.634 270.783 241.204L83.5478 200.637Z" fill="#2B6CB0"/>
<path opacity="0.1" d="M83.5478 200.637C83.5478 200.637 71.8683 222.746 85.3044 243.166L270.175 283.26C270.175 283.26 258.7 265.634 270.783 241.204L83.5478 200.637Z" fill="black"/>
<path opacity="0.1" d="M89.0566 208.302C89.0566 208.302 82.3932 224.479 89.0566 234.948V208.302Z" fill="black"/>
<path d="M270.195 283.26L373.405 250.139C373.405 250.139 379.177 251.384 375.445 255.618C371.713 259.851 272.186 287.493 272.186 287.493L85.3243 243.166L270.195 283.26Z" fill="#2B6CB0"/>
<path opacity="0.1" d="M270.195 283.26L373.405 250.139C373.405 250.139 379.177 251.384 375.445 255.618C371.713 259.851 272.186 287.493 272.186 287.493L85.3243 243.166L270.195 283.26Z" fill="black"/>
<path opacity="0.1" d="M261.736 245.657C261.736 245.657 251.783 257.61 261.736 275.54V245.657Z" fill="black"/>
<path opacity="0.1" d="M309.925 245.459L265.283 260.365L265.441 260.838L310.083 245.931L309.925 245.459Z" fill="black"/>
<path opacity="0.1" d="M318.87 243.976L265.272 264.374L265.449 264.84L319.047 244.441L318.87 243.976Z" fill="black"/>
<path opacity="0.1" d="M327.07 243.9L265.559 269.098L265.748 269.559L327.258 244.361L327.07 243.9Z" fill="black"/>
<path opacity="0.1" d="M336.012 241.738L266.29 273.261L266.495 273.715L336.217 242.192L336.012 241.738Z" fill="black"/>
<path opacity="0.1" d="M343.51 241.747L266.837 275.289L267.036 275.745L343.709 242.204L343.51 241.747Z" fill="black"/>
<path opacity="0.1" d="M359.921 238.961L267.995 278.699L268.193 279.156L360.119 239.418L359.921 238.961Z" fill="black"/>
<path opacity="0.3" d="M129.863 203.073L217.446 184.645L270.802 194.855L199.034 218.014L129.863 203.073Z" fill="white"/>
<path d="M373.405 204.233C373.405 204.233 377.933 206.061 375.276 208.885C372.618 211.709 270.802 241.204 270.802 241.204L373.405 204.233Z" fill="#2B6CB0"/>
<path d="M154.476 53.0431C154.476 53.0431 135.566 51.9025 137.775 65.1807C137.775 65.1807 137.332 67.5266 139.457 68.5924C139.457 68.5924 139.492 67.5963 141.398 67.94C142.078 68.0569 142.77 68.0903 143.458 68.0396C144.386 67.976 145.268 67.6124 145.971 67.0036C145.971 67.0036 151.291 64.8022 153.361 56.0962C153.361 56.0962 154.894 54.1986 154.854 53.7105L151.649 55.0751C151.649 55.0751 152.739 57.3811 151.883 59.2987C151.883 59.2987 151.778 55.1598 151.161 55.2544C151.037 55.2544 149.504 56.0563 149.504 56.0563C149.504 56.0563 151.38 60.0756 149.962 62.9942C149.962 62.9942 150.5 58.0436 148.917 56.3452L146.668 57.6601C146.668 57.6601 148.862 61.8089 147.374 65.1957C147.374 65.1957 147.758 60.0009 146.195 57.9788L144.155 59.5726C144.155 59.5726 146.22 63.6617 144.961 66.4707C144.961 66.4707 144.797 60.4243 143.717 59.9661C143.717 59.9661 141.93 61.5399 141.662 62.1874C141.662 62.1874 143.075 65.1757 142.194 66.7247C142.194 66.7247 141.662 62.6954 141.199 62.6755C141.199 62.6755 139.422 65.3451 139.238 67.158C139.324 65.4679 139.851 63.8297 140.766 62.4065C139.742 62.6004 138.797 63.0905 138.049 63.816C138.049 63.816 138.322 61.9284 141.209 61.764C141.209 61.764 142.677 59.737 143.07 59.6174C143.07 59.6174 140.199 59.3734 138.462 60.1454C138.462 60.1454 139.994 58.3673 143.592 59.1492L145.583 57.5057C145.583 57.5057 141.811 57.0076 140.208 57.5605C140.208 57.5605 142.055 55.9866 146.125 57.1321L148.32 55.8222C148.32 55.8222 145.1 55.1299 143.184 55.379C143.184 55.379 145.205 54.2882 148.962 55.4686L150.524 54.7664C150.524 54.7664 148.171 54.3032 147.479 54.2284C146.787 54.1537 146.752 53.9645 146.752 53.9645C148.246 53.7189 149.779 53.8913 151.181 54.4625C151.181 54.4625 154.54 53.2523 154.476 53.0431Z" fill="#2B6CB0"/>
<path opacity="0.1" d="M420.511 107.62C420.511 107.62 401.601 106.48 403.81 119.758C403.81 119.758 403.367 122.104 405.492 123.17C405.492 123.17 405.527 122.173 407.433 122.517C408.113 122.631 408.805 122.665 409.493 122.617C410.412 122.549 411.285 122.186 411.981 121.581C411.981 121.581 417.306 119.379 419.371 110.673C419.371 110.673 420.904 108.776 420.864 108.288L417.669 109.652C417.669 109.652 418.759 111.958 417.903 113.876C417.903 113.876 417.799 109.737 417.187 109.832C417.062 109.832 415.524 110.633 415.524 110.633C415.524 110.633 417.401 114.653 415.987 117.571C415.987 117.571 416.525 112.621 414.937 110.922L412.688 112.237C412.688 112.237 414.882 116.386 413.395 119.773C413.395 119.773 413.778 114.578 412.215 112.556L410.18 114.15C410.18 114.15 412.24 118.239 410.981 121.048C410.981 121.048 410.817 115.001 409.737 114.543C409.737 114.543 407.955 116.117 407.682 116.765C407.682 116.765 409.095 119.753 408.219 121.302C408.219 121.302 407.682 117.273 407.224 117.253C407.224 117.253 405.447 119.922 405.263 121.735C405.349 120.044 405.878 118.406 406.796 116.984C405.771 117.178 404.825 117.668 404.074 118.393C404.074 118.393 404.352 116.506 407.234 116.341C407.234 116.341 408.702 114.314 409.095 114.19C409.095 114.19 406.229 113.951 404.487 114.723C404.487 114.723 406.02 112.944 409.617 113.726L411.608 112.083C411.608 112.083 407.831 111.585 406.234 112.138C406.234 112.138 408.075 110.564 412.15 111.709L414.34 110.399C414.34 110.399 411.12 109.707 409.204 109.956C409.204 109.956 411.225 108.865 414.982 110.046L416.55 109.343C416.55 109.343 414.191 108.88 413.499 108.806C412.807 108.731 412.772 108.542 412.772 108.542C414.266 108.293 415.8 108.465 417.201 109.04C417.201 109.04 420.57 107.829 420.511 107.62Z" fill="#2B6CB0"/>
<path opacity="0.1" d="M186.324 135.073C186.324 135.073 178.083 117.975 167.593 126.402C167.593 126.402 165.329 127.159 165.438 129.535C165.438 129.535 166.309 129.081 166.931 130.914C167.164 131.562 167.471 132.181 167.847 132.757C168.356 133.538 169.105 134.133 169.982 134.45C169.982 134.45 174.495 138.027 183.099 135.586C183.099 135.586 185.503 135.999 185.896 135.711L183.149 133.584C183.149 133.584 181.656 135.661 179.576 135.845C179.576 135.845 183.139 133.738 182.756 133.25C182.676 133.151 181.263 132.189 181.263 132.189C181.263 132.189 178.67 135.79 175.436 135.975C175.436 135.975 180.014 134.032 180.721 131.816L178.481 130.491C178.481 130.491 175.929 134.436 172.251 134.784C172.251 134.784 176.969 132.588 177.969 130.237L175.59 129.241C175.59 129.241 173.027 133.036 169.962 133.31C169.962 133.31 175.157 130.217 175.028 129.047C175.028 129.047 172.783 128.26 172.087 128.334C172.087 128.334 170.186 131.019 168.394 131.019C168.394 131.019 171.644 128.583 171.445 128.19C171.445 128.19 168.25 127.941 166.568 128.688C168.084 127.934 169.77 127.591 171.46 127.692C170.79 126.892 169.901 126.305 168.902 126.003C168.902 126.003 170.683 125.326 172.231 127.762C172.231 127.762 174.719 128.055 175.013 128.339C175.013 128.339 173.824 125.72 172.306 124.579C172.306 124.579 174.605 125.042 175.655 128.563L178.068 129.52C178.068 129.52 176.68 125.974 175.401 124.853C175.401 124.853 177.67 125.695 178.661 129.833L180.87 131.109C180.87 131.109 179.91 127.956 178.755 126.407C178.755 126.407 180.691 127.642 181.492 131.497L182.871 132.523C182.871 132.523 182.124 130.237 181.875 129.599C181.626 128.962 181.751 128.832 181.751 128.832C182.698 130.015 183.297 131.438 183.483 132.941C183.483 132.941 186.145 135.222 186.324 135.073Z" fill="#2B6CB0"/>
<path opacity="0.1" d="M377.306 83.4644C377.306 83.4644 369.07 66.3661 358.575 74.7932C358.575 74.7932 356.316 75.5503 356.42 77.926C356.42 77.926 357.296 77.4778 357.913 79.3056C358.145 79.9562 358.454 80.5765 358.834 81.1534C359.341 81.9333 360.089 82.5262 360.964 82.8418C360.964 82.8418 365.482 86.4179 374.081 83.9824C374.081 83.9824 376.485 84.3908 376.883 84.1019L374.151 81.9702C374.151 81.9702 372.658 84.0521 370.583 84.2364C370.583 84.2364 374.141 82.1246 373.758 81.6365C373.678 81.5369 372.265 80.5757 372.265 80.5757C372.265 80.5757 369.677 84.1766 366.438 84.3609C366.438 84.3609 371.021 82.4185 371.728 80.2071L369.453 78.8922C369.453 78.8922 366.906 82.8319 363.223 83.1855C363.223 83.1855 367.941 80.9841 368.946 78.6332L366.562 77.6371C366.562 77.6371 363.999 81.4373 360.939 81.7063C360.939 81.7063 366.129 78.6133 366 77.4479C366 77.4479 363.76 76.656 363.064 76.7357C363.064 76.7357 361.163 79.4152 359.366 79.4152C359.366 79.4152 362.621 76.9797 362.422 76.5862C362.422 76.5862 359.227 76.3372 357.54 77.0843C359.056 76.3301 360.742 75.9866 362.432 76.0882C361.764 75.2877 360.877 74.7007 359.879 74.3998C359.879 74.3998 361.66 73.7224 363.208 76.1579C363.208 76.1579 365.696 76.4567 365.99 76.7406C365.99 76.7406 364.801 74.1159 363.278 72.9753C363.278 72.9753 365.577 73.4435 366.627 76.9847L369.045 77.9409C369.045 77.9409 367.657 74.3898 366.378 73.2692C366.378 73.2692 368.647 74.1109 369.633 78.2497L371.847 79.5248C371.847 79.5248 370.882 76.377 369.727 74.8231C369.727 74.8231 371.668 76.0583 372.464 79.9133L373.843 80.9392C373.843 80.9392 373.101 78.6532 372.847 78.0157C372.594 77.3781 372.723 77.2536 372.723 77.2536C373.667 78.4372 374.265 79.8595 374.45 81.3626C374.45 81.3626 377.152 83.6238 377.306 83.4644Z" fill="#2B6CB0"/>
<path opacity="0.1" d="M403.626 168.039C403.626 168.039 395.39 150.936 384.88 159.363C384.88 159.363 382.621 160.12 382.725 162.496C382.725 162.496 383.601 162.048 384.218 163.876C384.449 164.526 384.756 165.146 385.134 165.723C385.641 166.503 386.389 167.096 387.264 167.412C387.264 167.412 391.782 170.993 400.386 168.552C400.386 168.552 402.785 168.966 403.183 168.672L400.436 166.545C400.436 166.545 398.943 168.627 396.863 168.811C396.863 168.811 400.421 166.7 400.038 166.212C399.958 166.112 398.545 165.151 398.545 165.151C398.545 165.151 395.957 168.752 392.718 168.941C392.718 168.941 397.301 166.994 398.008 164.782L395.763 163.457C395.763 163.457 393.215 167.402 389.533 167.751C389.533 167.751 394.251 165.549 395.256 163.198L392.872 162.202C392.872 162.202 390.309 165.997 387.249 166.271C387.249 166.271 392.444 163.178 392.315 162.008C392.315 162.008 390.07 161.216 389.374 161.296C389.374 161.296 387.473 163.975 385.676 163.975C385.676 163.975 388.931 161.54 388.732 161.146C388.732 161.146 385.537 160.897 383.85 161.644C385.368 160.891 387.056 160.547 388.747 160.648C388.078 159.847 387.188 159.259 386.189 158.96C386.189 158.96 387.97 158.277 389.518 160.718C389.518 160.718 392.006 161.012 392.3 161.296C392.3 161.296 391.11 158.676 389.593 157.53C389.593 157.53 391.892 157.999 392.942 161.54L395.355 162.496C395.355 162.496 393.967 158.945 392.688 157.829C392.688 157.829 394.957 158.666 395.942 162.81L398.157 164.08C398.157 164.08 397.192 160.932 396.037 159.378C396.037 159.378 397.978 160.613 398.779 164.473L400.157 165.469C400.157 165.469 399.411 163.183 399.162 162.546C398.913 161.908 399.038 161.784 399.038 161.784C399.984 162.966 400.582 164.389 400.765 165.893C400.765 165.893 403.472 168.189 403.626 168.039Z" fill="#2B6CB0"/>
<path opacity="0.1" d="M100.497 390.556C106.816 390.556 111.938 389.983 111.938 389.276C111.938 388.569 106.816 387.996 100.497 387.996C94.1788 387.996 89.0566 388.569 89.0566 389.276C89.0566 389.983 94.1788 390.556 100.497 390.556Z" fill="#2B6CB0"/>
<path opacity="0.1" d="M25.4988 368.801C31.8173 368.801 36.9394 368.228 36.9394 367.521C36.9394 366.814 31.8173 366.241 25.4988 366.241C19.1804 366.241 14.0582 366.814 14.0582 367.521C14.0582 368.228 19.1804 368.801 25.4988 368.801Z" fill="#2B6CB0"/>
<path opacity="0.1" d="M157.665 405.005C163.984 405.005 169.106 404.432 169.106 403.725C169.106 403.018 163.984 402.445 157.665 402.445C151.347 402.445 146.225 403.018 146.225 403.725C146.225 404.432 151.347 405.005 157.665 405.005Z" fill="#2B6CB0"/>
<path opacity="0.1" d="M450.622 373.533C456.941 373.533 462.063 372.96 462.063 372.253C462.063 371.546 456.941 370.973 450.622 370.973C444.304 370.973 439.182 371.546 439.182 372.253C439.182 372.96 444.304 373.533 450.622 373.533Z" fill="#2B6CB0"/>
<path opacity="0.1" d="M355.42 367.322C361.739 367.322 366.861 366.749 366.861 366.042C366.861 365.335 361.739 364.762 355.42 364.762C349.102 364.762 343.98 365.335 343.98 366.042C343.98 366.749 349.102 367.322 355.42 367.322Z" fill="#2B6CB0"/>
<path opacity="0.1" d="M293.833 397.614C301.306 397.614 307.364 396.572 307.364 395.288C307.364 394.003 301.306 392.962 293.833 392.962C286.36 392.962 280.302 394.003 280.302 395.288C280.302 396.572 286.36 397.614 293.833 397.614Z" fill="#2B6CB0"/>
<path d="M299.869 371.909C299.869 371.909 281.029 381.651 290.763 393.126C290.763 393.126 291.678 395.617 294.326 395.442C294.326 395.442 293.798 394.476 295.819 393.704C296.537 393.426 297.221 393.063 297.854 392.623C298.709 392.031 299.349 391.176 299.675 390.188C299.675 390.188 303.527 385.028 300.541 375.48C300.541 375.48 300.929 372.781 300.591 372.342L298.302 375.485C298.302 375.485 300.666 377.074 300.939 379.41C300.939 379.41 298.451 375.49 297.953 375.923C297.844 376.013 296.819 377.642 296.819 377.642C296.819 377.642 300.919 380.426 301.223 384.042C301.223 384.042 298.914 378.977 296.421 378.254L294.992 380.804C294.992 380.804 299.471 383.534 299.969 387.638C299.969 387.638 297.366 382.433 294.709 381.382L293.659 384.077C293.659 384.077 297.978 386.826 298.376 390.243C298.376 390.243 294.764 384.53 293.465 384.709C293.465 384.709 292.649 387.239 292.758 388.021C292.758 388.021 295.809 390.063 295.863 392.07C295.863 392.07 293.047 388.509 292.614 388.743C292.614 388.743 292.435 392.324 293.301 394.187C293.301 394.187 291.808 391.528 292.051 388.743C291.179 389.516 290.551 390.527 290.245 391.652C290.245 391.652 289.434 389.685 292.106 387.872C292.106 387.872 292.36 385.088 292.669 384.744C292.669 384.744 289.777 386.159 288.548 387.892C288.548 387.892 289.001 385.307 292.922 384.022L293.918 381.292C293.918 381.292 289.996 382.956 288.787 384.42C288.787 384.42 289.658 381.855 294.226 380.625L295.58 378.135C295.58 378.135 292.096 379.31 290.394 380.625C290.394 380.625 291.713 378.419 295.998 377.403L297.097 375.834C297.097 375.834 294.569 376.735 293.863 377.059C293.156 377.383 293.017 377.223 293.017 377.223C294.309 376.13 295.878 375.416 297.55 375.161C297.55 375.161 300.043 372.078 299.869 371.909Z" fill="#2B6CB0"/>
<path d="M355.788 187.912C352.534 179.061 334.619 178.23 326.846 180.486C321.322 182.095 309.678 183.908 303.457 184.819L303.054 184.436C303.86 184.196 303.88 183.609 303.781 182.737C303.723 181.588 303.739 180.437 303.83 179.291C307.642 180.476 311.036 177.672 311.036 177.672C315.515 175.68 314.311 167.153 315.167 164.822C315.809 163.079 316.5 152.809 316.809 147.689H316.873L316.908 145.971C316.953 145.228 316.973 144.795 316.973 144.795C316.973 144.795 317.411 132.274 318.267 129.739C319.063 127.408 319.71 115.664 319.809 113.801C319.809 113.642 319.809 113.557 319.809 113.557L319.745 112.471C319.79 111.679 319.809 110.798 319.805 109.871C319.805 105.613 319.362 100.249 319.307 99.3823C319.307 99.2578 319.307 99.1084 319.307 98.9291C319.342 97.1112 319.113 88.0067 311.375 84.5651C308.523 83.2901 305.094 81.771 301.775 80.2918C300.919 72.8957 298.964 65.5394 299.133 58.0884C299.133 56.9678 299.232 55.8472 299.342 54.7315C299.342 55.0553 299.307 55.384 299.302 55.7276C299.302 56.4498 299.302 57.177 299.302 57.8992C299.596 48.5805 303.114 39.2121 302.785 30.0926C302.756 30.9842 302.691 31.8807 302.606 32.7772C302.778 29.6926 302.456 26.6004 301.651 23.6179C301.352 22.567 300.949 21.4812 300.088 20.779C299.274 20.2134 298.341 19.8435 297.361 19.6982C295.006 19.0949 292.614 18.649 290.2 18.3634C289.833 17.2396 289.289 16.182 288.588 15.2306C283.542 8.29766 276.067 1.78307 267.229 0.288904C262.796 -0.458182 257.695 0.164389 254.679 3.33701C254.364 3.61572 254.068 3.91522 253.793 4.23351C252.171 6.17096 251.474 8.71603 249.812 10.6485C249.703 10.778 249.578 10.8975 249.459 11.022C246.204 13.9357 241.134 14.5433 237.516 17.1581C236.878 17.6275 236.281 18.1489 235.729 18.717C234.271 20.1628 232.964 21.7532 231.828 23.4635C230.201 25.7546 228.528 28.1403 228.011 30.8746C226.971 36.3532 230.698 41.5479 231.39 47.0614C232.933 59.3983 219.292 70.3456 221.875 82.5181C222.564 85.5085 224.086 88.2422 226.264 90.4024C220.945 95.2235 216.416 99.9003 216.416 99.9003V100.179H215.575L215.66 101.175H215.575L216.038 106.579L215.575 114.449C215.575 114.449 215.575 114.533 215.575 114.693V114.732V114.947C215.575 114.947 215.575 115.031 215.575 115.191H215.605C215.759 118.074 216.371 128.444 217.098 130.63C217.954 133.166 218.387 145.687 218.387 145.687C218.387 145.687 219.332 163.383 220.198 165.724C221.064 168.064 219.835 176.566 224.328 178.573C225.643 179.583 227.2 180.228 228.842 180.446C228.613 182.309 228.757 183.659 229.499 184.082C229.816 184.269 230.176 184.371 230.544 184.381C230.239 184.833 229.968 185.308 229.733 185.8C227.949 185.614 226.197 185.2 224.518 184.57C219.69 182.578 203.672 178.095 199.019 181.248C194.366 184.401 183.169 187.26 188.34 199.95C193.51 212.64 195.919 212.959 195.919 212.959C197.51 214.116 198.906 215.52 200.054 217.118C201.606 219.454 216.073 224.798 219.69 224.798C221.228 224.774 222.766 224.851 224.294 225.027C224.294 225.027 220.367 228.474 220.89 230.476C221.412 232.478 219.695 248.506 219.695 248.506C219.695 248.506 223.677 252.52 225.378 247.255L225.438 247.335C225.757 247.768 227.478 249.726 230.718 247.255C232.044 246.249 233.452 245.356 234.928 244.586L250.613 242.365C252.249 242.262 253.889 242.251 255.525 242.33C258.013 242.534 260.457 241.06 261.994 239.919C265.244 241.154 268.897 242.504 270.633 242.997C274.157 243.993 290.35 248.341 294.137 246.982C294.924 246.668 295.624 246.169 296.177 245.527L299.79 245.642L298.098 245.98C298.098 245.98 301.392 246.035 305.871 246.095L305.682 246.205L311.3 246.155C319.521 246.229 328.757 246.254 329.971 245.98C331.872 245.557 341.75 245.856 344.661 245.98H345.472C345.472 245.98 356.326 243.814 351.847 232.792C348.404 224.325 337.819 221.864 333.121 221.187C334.445 220.923 335.585 220.719 336.341 220.599C339.62 220.101 345.99 217.113 346.508 216.092C347.025 215.071 352.365 212.108 353.743 210.419C355.122 208.731 359.058 196.762 355.788 187.912ZM265.891 212.68L265.358 212.855L265 212.974L264.313 213.652C263.766 213.283 263.179 212.895 262.567 212.496C263.647 212.561 264.756 212.626 265.891 212.68Z" fill="url(#paint0_linear)"/>
<path d="M297.62 160.165C297.62 160.165 305.234 180.087 309.563 178.095C313.893 176.103 312.718 167.636 313.544 165.315C314.37 162.994 315.286 145.393 315.286 145.393C315.286 145.393 315.704 132.941 316.53 130.421C317.296 128.105 317.918 116.426 318.023 114.588C318.023 114.429 318.023 114.344 318.023 114.344L317.202 99.9002L312.554 98.7397L301.775 102.724L300.282 111.256L299.7 114.588L299.451 116.007L297.62 160.165Z" fill="#BE6F72"/>
<path opacity="0.1" d="M300.128 156.828C300.128 156.828 307.393 162.78 309.583 163.303C311.773 163.826 313.116 168.468 313.116 168.468" fill="black"/>
<path d="M238.078 161.037C238.078 161.037 230.464 180.959 226.135 178.967C221.805 176.975 222.98 168.508 222.154 166.187C221.328 163.866 220.412 146.264 220.412 146.264C220.412 146.264 219.994 133.813 219.168 131.293C218.402 128.977 217.78 117.297 217.675 115.46C217.675 115.3 217.675 115.215 217.675 115.215L218.501 100.772L223.149 99.6113L233.928 103.596L235.421 112.127L236.003 115.46L236.252 116.879L238.078 161.037Z" fill="#BE6F72"/>
<path d="M287.657 54.4227H270.663V80.9343H287.657V54.4227Z" fill="#3E373A"/>
<path opacity="0.1" d="M287.657 54.4227H270.663V80.9343H287.657V54.4227Z" fill="black"/>
<path d="M235.092 180.879C235.092 180.879 229.285 187.269 231.44 188.43C233.594 189.59 247.533 211.341 247.533 211.341C247.533 211.341 293.315 216.984 301.949 208.517C310.583 200.05 310.409 184.924 310.409 184.924C310.409 184.924 303.472 186.418 302.716 185.606C301.959 184.794 297.804 180.879 297.804 180.879C297.804 180.879 239.073 177.313 235.092 180.879Z" fill="#4B4B5B"/>
<path opacity="0.02" d="M235.092 180.879C235.092 180.879 229.285 187.269 231.44 188.43C233.594 189.59 247.533 211.341 247.533 211.341C247.533 211.341 293.315 216.984 301.949 208.517C310.583 200.05 310.409 184.924 310.409 184.924C310.409 184.924 303.472 186.418 302.716 185.606C301.959 184.794 297.804 180.879 297.804 180.879C297.804 180.879 239.073 177.313 235.092 180.879Z" fill="black"/>
<path d="M317.51 100.109L302.581 112.063L298.068 112.392L296.411 112.511L268.578 114.553L239.715 112.441L235.421 112.128L229.947 111.729L218.501 100.772C218.501 100.772 226.603 92.0858 233.699 86.2236C236.496 83.9077 239.138 82.035 241.064 81.2979L241.392 81.1833C242.604 80.7105 243.685 79.9559 244.547 78.9819C250.151 73.1995 255.331 58.9301 255.331 58.9301C255.331 58.9301 280.049 46.15 277.063 62.9146C274.077 79.6792 288.175 75.5353 288.175 75.5353L292.823 77.6571L294.659 78.4988L299.342 80.6454L309.907 85.4965C318.197 89.3166 317.51 100.109 317.51 100.109Z" fill="#BE6F72"/>
<path opacity="0.1" d="M267.419 72.5819C279.695 72.5819 289.648 62.621 289.648 50.3337C289.648 38.0463 279.695 28.0854 267.419 28.0854C255.142 28.0854 245.189 38.0463 245.189 50.3337C245.189 62.621 255.142 72.5819 267.419 72.5819Z" fill="black"/>
<path opacity="0.1" d="M317.545 115.958H217.675C217.675 115.798 217.675 115.714 217.675 115.714L218.501 101.27C218.501 101.27 226.603 92.5838 233.699 86.7217L296.401 84.2314L299.317 81.1534L309.882 86.0045C318.177 89.8196 317.51 100.613 317.51 100.613C317.51 100.613 318.645 113.119 317.545 115.958Z" fill="black"/>
<path d="M317.545 115.46H217.675C217.675 115.3 217.675 115.216 217.675 115.216L218.501 100.772C218.501 100.772 226.603 92.0858 233.699 86.2237L296.401 83.7334L299.317 80.6554L309.882 85.5065C318.177 89.3216 317.51 100.114 317.51 100.114C317.51 100.114 318.645 112.621 317.545 115.46Z" fill="#E7C7CA"/>
<path opacity="0.1" d="M251.41 74.9576C251.41 74.9576 267.165 95.0492 288.15 74.5442C309.135 54.0392 290.474 120.281 290.474 120.281L245.189 125.66L251.41 74.9576Z" fill="black"/>
<path d="M251.41 75.9537C251.41 75.9537 267.165 96.0453 288.15 75.5403C309.135 55.0353 290.474 121.277 290.474 121.277L245.189 126.656L251.41 75.9537Z" fill="#E7C7CA"/>
<path opacity="0.1" d="M294.634 79.48L296.301 104.926L298.088 113.393L299.451 119.867C299.451 119.867 302.935 169.673 301.939 172.163C300.944 174.654 302.437 176.646 302.646 177.971C302.855 179.296 302.437 182.623 302.601 184.117C302.765 185.611 302.601 186.273 298.789 185.74C294.978 185.208 289.663 184.281 289.663 184.281C289.663 184.281 276.227 185.277 271.584 183.619C266.941 181.96 258.148 181.955 258.148 181.955C258.148 181.955 244.876 182.289 240.566 181.791C236.257 181.293 233.928 187.105 231.111 185.442C228.295 183.778 234.425 167.681 236.416 163.029C238.406 158.377 233.764 146.593 233.764 146.593L239.735 113.438L241.064 105.922V82.294L241.392 82.1795C242.604 81.7067 243.685 80.9521 244.547 79.9781L246.04 103.755L292.818 105.419V78.6582" fill="black"/>
<path d="M294.634 78.4838L296.301 103.93L298.088 112.396L299.451 118.871C299.451 118.871 302.935 168.677 301.939 171.167C300.944 173.658 302.437 175.65 302.646 176.975C302.855 178.299 302.437 181.626 302.601 183.121C302.765 184.615 302.601 185.277 298.789 184.744C294.978 184.211 289.663 183.285 289.663 183.285C289.663 183.285 276.227 184.281 271.584 182.623C266.941 180.964 258.148 180.959 258.148 180.959C258.148 180.959 244.876 181.293 240.566 180.795C236.257 180.297 233.928 186.109 231.111 184.445C228.295 182.782 234.425 166.685 236.416 162.033C238.406 157.381 233.764 145.597 233.764 145.597L239.735 112.441L241.064 104.926V81.2978L241.392 81.1832C242.604 80.7105 243.685 79.9559 244.547 78.9818L246.04 102.759L292.818 104.423V77.662" fill="#E7C7CA"/>
<path opacity="0.1" d="M300.014 25.381C299.73 24.34 299.337 23.2592 298.521 22.562C297.741 22.0019 296.841 21.6333 295.893 21.4862C293.623 20.8888 291.316 20.4462 288.986 20.1613C288.653 19.0554 288.15 18.0084 287.493 17.0584C282.616 10.1653 275.401 3.66567 266.911 2.19641C262.467 1.42442 257.317 2.11672 254.47 5.62304C252.908 7.55052 252.236 10.1056 250.658 11.9982C247.618 15.6738 242.129 16.1271 238.297 18.971C236.252 20.4651 234.769 22.6317 233.321 24.7335C231.753 27.0096 230.141 29.3804 229.643 32.0997C228.648 37.5335 232.236 42.7133 232.898 48.1969C234.391 60.4641 221.253 71.3466 223.736 83.4494C225.184 90.5069 231.698 95.4775 238.436 97.9977C240.81 98.8892 243.522 99.7757 244.632 102.057C245.13 103.053 245.214 104.203 245.682 105.21C247.255 108.566 252.425 108.696 255.202 106.25C257.978 103.805 258.854 99.8504 259.183 96.1598C260.516 80.0427 254.067 64.1198 254.819 47.9629C255.042 43.0769 256.416 37.5335 260.79 35.3222C266.677 32.3338 273.758 37.3144 280.238 36.3631C283.304 43.8297 283.955 52.0702 282.099 59.9262C281.069 64.2244 279.287 68.3932 279.158 72.8259C278.964 79.5745 282.601 85.7405 285.746 91.7072C286.421 92.823 286.873 94.0596 287.075 95.348C287.125 96.6553 286.882 97.957 286.364 99.1581C284.587 103.944 281.522 108.387 281.173 113.482C281.071 114.077 281.205 114.688 281.546 115.186C281.897 115.518 282.35 115.721 282.83 115.763C288.205 116.685 292.853 111.918 295.475 107.132C298.399 101.846 300.103 95.9708 300.462 89.9391C301.004 79.7987 297.371 69.8226 297.595 59.6722C297.854 48.1322 303.064 36.5125 300.014 25.381Z" fill="black"/>
<path d="M300.511 24.8829C300.228 23.842 299.834 22.7612 299.018 22.0639C298.239 21.5039 297.339 21.1353 296.391 20.9881C294.121 20.3907 291.813 19.9481 289.484 19.6633C289.151 18.5573 288.647 17.5104 287.991 16.5604C283.114 9.66727 275.898 3.16763 267.409 1.69836C262.965 0.926371 257.814 1.61867 254.968 5.12499C253.405 7.05247 252.733 9.60751 251.156 11.5001C248.115 15.1758 242.626 15.629 238.795 18.4729C236.749 19.9671 235.266 22.1336 233.818 24.2354C232.251 26.5116 230.638 28.8823 230.141 31.6017C229.146 37.0355 232.733 42.2153 233.395 47.6989C234.888 59.9661 221.751 70.8486 224.234 82.9514C225.682 90.0089 232.196 94.9795 238.934 97.4996C241.308 98.3912 244.02 99.2777 245.13 101.559C245.627 102.555 245.712 103.705 246.18 104.712C247.752 108.068 252.922 108.198 255.699 105.752C258.476 103.307 259.352 99.3524 259.68 95.6618C261.014 79.5447 254.565 63.6218 255.316 47.4648C255.54 42.5789 256.914 37.0355 261.288 34.8241C267.175 31.8358 274.256 36.8164 280.735 35.8651C283.801 43.3316 284.452 51.5722 282.596 59.4282C281.566 63.7264 279.785 67.8951 279.655 72.3278C279.461 79.0765 283.099 85.2425 286.244 91.2092C286.919 92.3249 287.37 93.5616 287.573 94.85C287.622 96.1572 287.379 97.459 286.861 98.6601C285.085 103.446 282.019 107.889 281.671 112.984C281.569 113.579 281.703 114.19 282.044 114.688C282.395 115.02 282.847 115.223 283.328 115.265C288.702 116.187 293.35 111.42 295.973 106.634C298.897 101.348 300.6 95.4728 300.959 89.4411C301.501 79.3006 297.869 69.3245 298.093 59.1741C298.351 47.6342 303.562 36.0145 300.511 24.8829Z" fill="#3E373A"/>
<path d="M289.518 245.408L309.26 246.04L306.428 231.387L291.305 232.827L289.518 245.408Z" fill="#C3C7D9"/>
<path d="M350.688 210.678C349.359 212.337 344.218 215.325 343.721 216.321C343.223 217.317 337.087 220.306 333.932 220.804C330.777 221.302 320.83 223.463 319.003 224.624C317.695 225.46 307.19 228.11 300.287 229.579C298.418 230.022 296.526 230.363 294.619 230.6C291.633 230.765 258.959 219.643 258.959 219.643L265.259 213.168L265.607 213.049C267.389 212.446 275.62 209.662 280.188 208.337C285.333 206.843 291.305 200.702 291.305 200.702C291.305 200.702 300.093 197.714 301.258 197.38C302.422 197.046 298.272 185.76 298.272 185.76C298.272 185.76 317.346 183.111 324.811 180.864C332.275 178.618 349.528 179.45 352.678 188.251C355.828 197.051 352.036 209.02 350.688 210.678Z" fill="#4B4B5B"/>
<path d="M263.766 238.734C263.766 238.734 259.954 242.718 256.137 242.389C252.32 242.061 238.974 243.386 238.974 243.386C236.555 244.351 234.29 245.665 232.251 247.285C229.131 249.746 227.473 247.783 227.165 247.365L227.11 247.285C225.448 252.52 221.636 248.53 221.636 248.53C221.636 248.53 223.293 232.593 222.786 230.6C222.278 228.608 226.065 225.187 226.065 225.187L230.544 224.046L241.89 221.137L258.148 226.78L263.766 238.734Z" fill="#E7C7CA"/>
<path opacity="0.1" d="M230.524 224.046L227.165 247.365L227.11 247.285C225.448 252.52 221.636 248.53 221.636 248.53C221.636 248.53 223.293 232.593 222.786 230.6C222.278 228.608 226.065 225.186 226.065 225.186L230.524 224.046Z" fill="black"/>
<path opacity="0.1" d="M254.002 157.715C254.002 157.715 262.791 160.703 270.424 157.715H254.002Z" fill="black"/>
<path opacity="0.1" d="M284.005 163.363C284.005 163.363 287.652 165.186 290.474 163.363H284.005Z" fill="black"/>
<path opacity="0.1" d="M284.005 167.686C284.005 167.686 290.141 168.508 291.305 166.849L284.005 167.686Z" fill="black"/>
<path opacity="0.1" d="M282.014 176.975C282.014 176.975 293.539 175.48 296.401 173.488L282.014 176.975Z" fill="black"/>
<path opacity="0.1" d="M246.846 173.488C246.846 173.488 253.316 177.139 258.128 176.975L246.846 173.488Z" fill="black"/>
<path opacity="0.1" d="M300.282 229.579C298.413 230.022 296.521 230.363 294.614 230.6C291.628 230.765 258.954 219.643 258.954 219.643L265.254 213.168L265.602 213.049C266.598 213.751 267.414 214.354 267.996 214.812C270.738 216.974 273.385 214.15 274.381 214.15C275.376 214.15 284 221.287 284 221.287C284 221.287 291.962 223.115 293.291 224.773C294.619 226.432 299.262 226.103 300.088 227.263C300.337 227.622 300.367 228.504 300.282 229.579Z" fill="black"/>
<path d="M238.974 186.438C238.974 186.438 230.922 186.901 226.279 184.943C221.636 182.986 206.21 178.469 201.731 181.641C197.252 184.814 186.468 187.618 191.445 200.239C196.421 212.86 198.745 213.188 198.745 213.188C200.285 214.344 201.629 215.74 202.726 217.322C204.219 219.648 218.153 224.957 221.636 224.957C225.12 224.957 231.256 224.957 239.88 230.934C248.503 236.911 256.301 237.578 256.301 237.578C256.301 237.578 267.249 242.061 270.658 243.057C274.067 244.053 289.643 248.366 293.296 247.041C296.948 245.716 299.267 237.409 299.267 237.409C299.267 237.409 300.924 229.938 300.093 228.777C299.262 227.617 294.619 227.946 293.296 226.287C291.972 224.629 284.005 222.801 284.005 222.801C284.005 222.801 275.401 215.659 274.405 215.659C273.41 215.659 270.763 218.478 268.021 216.321C262.559 212.272 256.82 208.611 250.847 205.364C244.547 202.042 238.974 186.438 238.974 186.438Z" fill="#4B4B5B"/>
<path opacity="0.1" d="M222.786 191.254C224.219 190.961 225.701 191.003 227.116 191.377C228.531 191.751 229.84 192.447 230.942 193.41C234.923 196.733 248.319 203.402 248.319 203.402" fill="black"/>
<path opacity="0.1" d="M322.323 191.045C322.323 191.045 304.572 193.734 301.258 197.385L322.323 191.045Z" fill="black"/>
<path d="M342.726 246.04H341.944C339.138 245.941 329.628 245.642 327.797 246.04C325.642 246.538 297.107 246.04 297.107 246.04L302.686 244.88C302.686 244.88 300.616 237.618 301.929 237.015C301.929 237.015 294.465 232.095 300.093 228.773C305.721 225.45 311.788 226.85 311.788 226.85L325.915 222.059L328.628 221.137C328.628 221.137 344.552 221.969 348.861 232.926C353.171 243.884 342.726 246.04 342.726 246.04Z" fill="#E7C7CA"/>
<path opacity="0.1" d="M342.725 246.04H341.944C346.577 242.215 357.057 230.571 325.915 222.084L328.628 221.162C328.628 221.162 344.552 221.994 348.861 232.951C353.171 243.909 342.725 246.04 342.725 246.04Z" fill="black"/>
<path d="M313.45 233.131C313.931 233.131 314.321 232.74 314.321 232.259C314.321 231.778 313.931 231.387 313.45 231.387C312.969 231.387 312.579 231.778 312.579 232.259C312.579 232.74 312.969 233.131 313.45 233.131Z" fill="#4B4B5B"/>
<path d="M308.389 234.57C308.87 234.57 309.26 234.18 309.26 233.698C309.26 233.217 308.87 232.827 308.389 232.827C307.908 232.827 307.518 233.217 307.518 233.698C307.518 234.18 307.908 234.57 308.389 234.57Z" fill="#4B4B5B"/>
<g opacity="0.1">
<path opacity="0.1" d="M283.731 49.5118C283.924 44.0336 282.95 38.577 280.875 33.5043C274.405 34.4705 267.319 29.475 261.427 32.4633C257.068 34.6747 255.699 40.2181 255.455 45.104C255.396 46.394 255.386 47.684 255.411 48.9739C255.411 48.5157 255.411 48.0525 255.455 47.5943C255.684 42.7084 257.053 37.165 261.427 34.9536C267.319 31.9653 274.395 36.9459 280.875 35.9946C282.633 40.2913 283.6 44.8707 283.731 49.5118Z" fill="black"/>
<path opacity="0.1" d="M233.599 48.6004C233.685 47.5151 233.663 46.4241 233.535 45.3431C233.007 40.9602 230.614 36.7715 230.181 32.4982C229.623 37.6531 232.903 42.6038 233.535 47.8333C233.599 48.1023 233.599 48.3414 233.599 48.6004Z" fill="black"/>
<path opacity="0.1" d="M259.82 93.2959C259.511 96.9915 258.64 100.941 255.839 103.392C253.037 105.842 247.877 105.708 246.319 102.351C245.821 101.354 245.747 100.194 245.264 99.1979C244.159 96.9168 241.442 96.0303 239.068 95.1387C232.325 92.6136 225.821 87.6679 224.373 80.5905C224.244 79.9493 224.156 79.3005 224.11 78.6481C223.987 80.1307 224.076 81.6232 224.373 83.0808C225.821 90.1382 232.335 95.1039 239.068 97.629C241.442 98.5205 244.159 99.4071 245.264 101.688C245.762 102.684 245.846 103.835 246.319 104.841C247.886 108.198 253.057 108.327 255.839 105.882C258.62 103.436 259.486 99.4818 259.82 95.7862C259.971 93.8411 260.023 91.8894 259.974 89.939C259.974 91.0696 259.909 92.1853 259.82 93.2959Z" fill="black"/>
<path opacity="0.1" d="M298.257 56.8133C298.257 57.5355 298.257 58.2527 298.257 58.9699C298.536 49.706 301.93 40.3924 301.596 31.3228C301.337 39.71 298.446 48.2866 298.257 56.8133Z" fill="black"/>
<path opacity="0.1" d="M287.578 94.2871C287.7 93.6961 287.739 93.0908 287.692 92.4891C287.492 91.2001 287.04 89.9631 286.364 88.8483C283.487 83.3697 280.208 77.7616 279.82 71.6803C279.82 71.9393 279.785 72.1784 279.78 72.4573C279.581 79.201 283.218 85.3719 286.364 91.3386C286.898 92.2627 287.306 93.2544 287.578 94.2871Z" fill="black"/>
<path opacity="0.1" d="M301.118 87.0802C300.747 93.1143 299.031 98.9887 296.097 104.273C293.47 109.059 288.827 113.826 283.447 112.904C282.965 112.863 282.512 112.657 282.164 112.322C282.062 112.208 281.983 112.076 281.93 111.933C281.87 112.322 281.82 112.715 281.79 113.114C281.687 113.707 281.821 114.317 282.164 114.812C282.512 115.148 282.965 115.353 283.447 115.395C288.827 116.316 293.47 111.55 296.097 106.763C299.031 101.479 300.747 95.6046 301.118 89.5705C301.178 88.4051 301.183 87.2446 301.148 86.0841C301.138 86.4178 301.138 86.7465 301.118 87.0802Z" fill="black"/>
</g>
<path opacity="0.1" d="M301.929 237.015C301.929 237.015 314.525 242.305 322.83 230.6" stroke="black" stroke-miterlimit="10"/>
<path opacity="0.1" d="M304.408 246.259C304.408 246.259 314.694 239.565 327.797 246.04" stroke="black" stroke-miterlimit="10"/>
<path opacity="0.1" d="M235.555 244.74C235.555 244.74 239.875 234.988 251.41 242.424" stroke="black" stroke-miterlimit="10"/>
<path opacity="0.1" d="M221.552 100.523L230.36 92.554C230.36 92.554 264.512 90.3127 265.926 101.932C265.926 101.932 278.033 88.1561 303.497 91.2241L314.271 99.8106L284.492 112.89L255.555 122.935L234.241 113.388L221.552 100.523Z" fill="black"/>
<path d="M221.552 101.021L230.36 93.052C230.36 93.052 264.512 90.8107 265.926 102.43C265.926 102.43 278.033 88.6542 303.497 91.7222L314.271 100.309L284.492 113.388L255.555 123.433L234.241 113.886L221.552 101.021Z" fill="#D5D6DB"/>
<path opacity="0.1" d="M217.655 102.017L221.552 148.67L262.855 150.747L261.064 104.293L261.029 103.511L217.655 102.017Z" fill="black"/>
<path d="M217.655 101.021L221.552 147.674L262.855 149.751L261.064 103.297L261.029 102.515L217.655 101.021Z" fill="#2B6CB0"/>
<path opacity="0.1" d="M316.162 101.021L273.554 107.416V154.278L315.191 148.257L316.162 101.021Z" fill="black"/>
<path d="M316.162 100.025L273.554 106.42V153.282L315.191 147.261L316.162 100.025Z" fill="#2B6CB0"/>
<path opacity="0.3" d="M306.115 111.46L283.099 114.02L283.602 121.87L306.1 119.409L306.115 111.46Z" fill="white"/>
<path d="M223.791 172.656L226.135 178.967C226.135 178.967 229.618 181.955 233.43 180.461C237.242 178.967 240.566 178.225 242.223 176.77C243.881 175.316 246.204 168.01 246.204 168.01C246.204 168.01 248.528 160.041 250.847 158.048C253.166 156.056 259.307 128.608 250.847 131.293C242.388 133.977 235.918 158.88 235.918 158.88C235.918 158.88 234.425 160.703 232.271 160.872C230.116 161.042 225.801 160.539 224.97 162.367C224.139 164.194 221.303 169.006 223.791 172.656Z" fill="#BE6F72"/>
<path opacity="0.1" d="M273.554 107.411C271.373 107.903 269.107 107.877 266.937 107.336C264.767 106.794 262.754 105.752 261.059 104.293L262.855 150.742C262.855 150.742 267.085 155.324 273.554 154.278V107.411Z" fill="black"/>
<path d="M273.554 106.415C271.373 106.907 269.107 106.881 266.937 106.34C264.767 105.798 262.754 104.756 261.059 103.297L262.855 149.746C262.855 149.746 267.085 154.328 273.554 153.282V106.415Z" fill="#2B6CB0"/>
<path opacity="0.1" d="M273.554 106.415C271.373 106.907 269.107 106.881 266.937 106.34C264.767 105.798 262.754 104.756 261.059 103.297L262.855 149.746C262.855 149.746 267.085 154.328 273.554 153.282V106.415Z" fill="black"/>
<path opacity="0.1" d="M274.55 101.18C274.55 101.18 291.882 95.8759 296.401 96.623L274.55 101.18Z" fill="black"/>
<path opacity="0.1" d="M255.162 98.8643C255.162 98.8643 238.362 94.8799 235.555 96.0105L255.162 98.8643Z" fill="black"/>
<path opacity="0.1" d="M285.478 101.843C285.478 101.843 297.068 97.5893 301.258 99.6114L285.478 101.843Z" fill="black"/>
<path opacity="0.1" d="M279.641 208.541C281.436 207.191 283.348 206.003 285.353 204.99C288.339 203.551 293.813 199.815 293.813 199.815" fill="black"/>
<path opacity="0.1" d="M235.555 157.715C235.555 157.715 228.285 163.667 226.1 164.189C223.915 164.712 222.567 169.354 222.567 169.354" fill="black"/>
<path d="M311.887 171.77L309.568 178.095C309.568 178.095 306.085 181.084 302.268 179.589C298.451 178.095 295.137 177.353 293.475 175.899C291.813 174.444 289.494 167.138 289.494 167.138C289.494 167.138 287.175 159.169 284.851 157.177C282.527 155.185 276.391 127.737 284.851 130.421C293.311 133.106 299.78 158.009 299.78 158.009C299.78 158.009 301.273 159.831 303.427 160.001C305.582 160.17 309.897 159.667 310.728 161.495C311.559 163.323 314.375 168.134 311.887 171.77Z" fill="#BE6F72"/>
<path opacity="0.1" d="M307.821 160.135C307.821 160.135 312.574 163.193 312.554 166.849L307.821 160.135Z" fill="black"/>
<path d="M267.498 71.491C279.775 71.491 289.728 61.5302 289.728 49.2428C289.728 36.9555 279.775 26.9946 267.498 26.9946C255.221 26.9946 245.269 36.9555 245.269 49.2428C245.269 61.5302 255.221 71.491 267.498 71.491Z" fill="#BE6F72"/>
<path d="M253.54 43.2712C256.237 42.8479 258.6 41.279 261.178 40.3775C266.946 38.3504 273.325 39.74 279.163 41.5679C281.402 42.2701 283.676 43.062 286.025 43.062C288.374 43.062 290.867 42.1008 292.066 40.0737C293.171 38.211 292.957 35.7904 292.026 33.833C291.096 31.8757 289.538 30.3018 287.966 28.8176C282.79 23.9267 276.371 19.3545 269.27 19.8526C266.413 20.0568 263.681 21.0778 261.054 22.2084C257.745 23.6353 254.525 25.2586 251.41 27.0694C249.016 28.459 244.582 30.3168 243.204 32.8569C240.069 38.5795 248.663 44.0382 253.54 43.2712Z" fill="#3E373A"/>
<path opacity="0.1" d="M292.066 37.9818C290.867 40.0089 288.374 40.9702 286.025 40.9702C283.676 40.9702 281.402 40.2082 279.158 39.5059C273.321 37.678 266.946 36.2835 261.173 38.3155C258.601 39.217 256.232 40.8058 253.535 41.2043C249.603 41.8219 243.273 38.3952 242.587 34.0372C241.815 39.0726 249.155 43.3858 253.535 42.6984C256.232 42.2751 258.601 40.7062 261.173 39.8097C266.946 37.7776 273.321 39.1722 279.158 41.0001C281.402 41.7023 283.671 42.4942 286.025 42.4644C288.379 42.4345 290.867 41.5081 292.066 39.476C292.688 38.3705 292.933 37.0924 292.763 35.8352C292.685 36.5921 292.448 37.3238 292.066 37.9818Z" fill="black"/>
<path d="M472.464 307.904C472.464 307.904 475.415 311.764 471.1 317.596C466.786 323.428 463.233 328.349 464.666 331.985C464.666 331.985 471.175 321.157 476.47 321.003C481.765 320.848 478.281 314.413 472.464 307.904Z" fill="#2B6CB0"/>
<path opacity="0.1" d="M472.464 307.904C472.721 308.277 472.923 308.684 473.066 309.114C478.231 315.19 480.988 320.863 476.017 321.003C471.389 321.137 465.84 329.42 464.511 331.507C464.554 331.675 464.605 331.842 464.666 332.005C464.666 332.005 471.175 321.177 476.47 321.023C481.765 320.868 478.281 314.413 472.464 307.904Z" fill="black"/>
<path d="M477.938 312.825C477.938 314.184 477.783 315.285 477.599 315.285C477.415 315.285 477.256 314.184 477.256 312.825C477.256 311.465 477.445 312.107 477.634 312.107C477.823 312.107 477.938 311.465 477.938 312.825Z" fill="#FFD037"/>
<path d="M479.824 314.448C478.634 315.096 477.594 315.489 477.505 315.325C477.415 315.16 478.306 314.498 479.495 313.831C480.685 313.163 480.217 313.651 480.306 313.831C480.396 314.01 481.018 313.796 479.824 314.448Z" fill="#FFD037"/>
<path d="M456.868 307.904C456.868 307.904 453.917 311.764 458.231 317.596C462.546 323.428 466.099 328.349 464.661 331.985C464.661 331.985 458.157 321.157 452.857 321.003C447.557 320.848 451.065 314.413 456.868 307.904Z" fill="#2B6CB0"/>
<path opacity="0.1" d="M456.868 307.904C456.611 308.277 456.408 308.684 456.266 309.114C451.1 315.19 448.343 320.863 453.315 321.003C457.938 321.137 463.491 329.42 464.82 331.507C464.778 331.676 464.725 331.843 464.661 332.005C464.661 332.005 458.157 321.177 452.857 321.023C447.557 320.868 451.065 314.413 456.868 307.904Z" fill="black"/>
<path d="M451.384 312.825C451.384 314.184 451.533 315.285 451.722 315.285C451.911 315.285 452.066 314.184 452.066 312.825C452.066 311.465 451.872 312.107 451.687 312.107C451.503 312.107 451.384 311.465 451.384 312.825Z" fill="#FFD037"/>
<path d="M449.503 314.448C450.692 315.096 451.732 315.489 451.822 315.325C451.911 315.16 451.021 314.498 449.831 313.831C448.642 313.163 449.11 313.651 449.02 313.831C448.931 314.01 448.309 313.796 449.503 314.448Z" fill="#FFD037"/>
<path opacity="0.1" d="M464.666 361.53C481.706 361.53 495.519 359.409 495.519 356.793C495.519 354.177 481.706 352.057 464.666 352.057C447.626 352.057 433.812 354.177 433.812 356.793C433.812 359.409 447.626 361.53 464.666 361.53Z" fill="#2B6CB0"/>
<path d="M480.545 326.78L480.396 327.985L480.187 329.689L480.102 330.401L479.893 332.104L479.804 332.817L479.6 334.515L477.236 353.889C477.027 355.618 474.205 356.967 470.797 356.967H458.53C455.121 356.967 452.305 355.618 452.091 353.889L449.727 334.515L449.518 332.817L449.433 332.104L449.224 330.401L449.135 329.689L448.931 327.985L448.781 326.78C448.667 325.784 450.19 324.977 452.12 324.977H477.211C479.137 324.977 480.665 325.799 480.545 326.78Z" fill="#65617D"/>
<path d="M480.396 327.985L480.192 329.689H449.14L448.931 327.985H480.396Z" fill="#9D9CB5"/>
<path d="M480.102 330.401L479.898 332.104H449.433L449.224 330.401H480.102Z" fill="#9D9CB5"/>
<path d="M479.809 332.817L479.6 334.52H449.727L449.523 332.817H479.809Z" fill="#9D9CB5"/>
</g>
<defs>
<linearGradient id="paint0_linear" x1="272.027" y1="249.985" x2="272.027" y2="2.93159e-05" gradientUnits="userSpaceOnUse">
<stop stop-color="#808080" stop-opacity="0.25"/>
<stop offset="0.54" stop-color="#808080" stop-opacity="0.12"/>
<stop offset="1" stop-color="#808080" stop-opacity="0.1"/>
</linearGradient>
<clipPath id="clip0">
<rect width="509" height="405" fill="white"/>
</clipPath>
</defs>
</svg>
